<mxfile host="app.diagrams.net" modified="2023-04-20T11:55:06.761Z" agent="Mozilla/5.0 (Windows NT 10.0; Win64; x64) AppleWebKit/537.36 (KHTML, like Gecko) Chrome/111.0.0.0 Safari/537.36 OPR/97.0.0.0" etag="vydCKg3H4TTlJphDzjWS" version="21.1.8">
  <diagram name="Страница 1" id="RRHG435p7jU8lpElpWkl">
    <mxGraphModel dx="787" dy="695" grid="0" gridSize="10" guides="1" tooltips="1" connect="1" arrows="1" fold="1" page="0" pageScale="1" pageWidth="827" pageHeight="1169" math="0" shadow="0">
      <root>
        <mxCell id="0" />
        <mxCell id="1" parent="0" />
        <mxCell id="JI0k7G46RBqM7oKg0Nsy-13" value="Ht-1" style="text;html=1;strokeColor=none;fillColor=none;align=center;verticalAlign=middle;whiteSpace=wrap;rounded=0;" parent="1" vertex="1">
          <mxGeometry x="580" y="60" width="40" height="20" as="geometry" />
        </mxCell>
        <mxCell id="JI0k7G46RBqM7oKg0Nsy-14" value="Ct-1" style="text;html=1;strokeColor=none;fillColor=none;align=center;verticalAlign=middle;whiteSpace=wrap;rounded=0;" parent="1" vertex="1">
          <mxGeometry x="580" y="32" width="40" height="20" as="geometry" />
        </mxCell>
        <mxCell id="yduK_dM2t1P86b6ys-o--1" value="&lt;font style=&quot;font-size: 26px;&quot;&gt;М0&lt;/font&gt;" style="rounded=0;whiteSpace=wrap;html=1;" vertex="1" parent="1">
          <mxGeometry x="869" y="340" width="90" height="60" as="geometry" />
        </mxCell>
        <mxCell id="yduK_dM2t1P86b6ys-o--2" value="&lt;font style=&quot;font-size: 26px;&quot;&gt;М15&lt;/font&gt;" style="rounded=0;whiteSpace=wrap;html=1;" vertex="1" parent="1">
          <mxGeometry x="630" y="470" width="90" height="60" as="geometry" />
        </mxCell>
        <mxCell id="yduK_dM2t1P86b6ys-o--3" value="&lt;font style=&quot;font-size: 26px;&quot;&gt;М1&lt;/font&gt;" style="rounded=0;whiteSpace=wrap;html=1;" vertex="1" parent="1">
          <mxGeometry x="760" y="470" width="90" height="60" as="geometry" />
        </mxCell>
        <mxCell id="yduK_dM2t1P86b6ys-o--4" value="&lt;font style=&quot;font-size: 26px;&quot;&gt;М7&lt;/font&gt;" style="rounded=0;whiteSpace=wrap;html=1;" vertex="1" parent="1">
          <mxGeometry x="1130" y="470" width="90" height="60" as="geometry" />
        </mxCell>
        <mxCell id="yduK_dM2t1P86b6ys-o--5" value="&lt;font style=&quot;font-size: 26px;&quot;&gt;М16&lt;/font&gt;" style="rounded=0;whiteSpace=wrap;html=1;" vertex="1" parent="1">
          <mxGeometry x="500" y="470" width="90" height="60" as="geometry" />
        </mxCell>
        <mxCell id="yduK_dM2t1P86b6ys-o--6" value="&lt;font style=&quot;font-size: 26px;&quot;&gt;М3&lt;/font&gt;" style="rounded=0;whiteSpace=wrap;html=1;" vertex="1" parent="1">
          <mxGeometry x="760" y="770" width="90" height="60" as="geometry" />
        </mxCell>
        <mxCell id="yduK_dM2t1P86b6ys-o--7" value="&lt;font style=&quot;font-size: 26px;&quot;&gt;М2&lt;/font&gt;" style="rounded=0;whiteSpace=wrap;html=1;" vertex="1" parent="1">
          <mxGeometry x="670" y="570" width="90" height="60" as="geometry" />
        </mxCell>
        <mxCell id="yduK_dM2t1P86b6ys-o--8" value="&lt;font style=&quot;font-size: 26px;&quot;&gt;М4&lt;/font&gt;" style="rounded=0;whiteSpace=wrap;html=1;" vertex="1" parent="1">
          <mxGeometry x="850" y="570" width="90" height="60" as="geometry" />
        </mxCell>
        <mxCell id="yduK_dM2t1P86b6ys-o--9" value="&lt;font style=&quot;font-size: 26px;&quot;&gt;М5&lt;/font&gt;" style="rounded=0;whiteSpace=wrap;html=1;" vertex="1" parent="1">
          <mxGeometry x="670" y="670" width="90" height="60" as="geometry" />
        </mxCell>
        <mxCell id="yduK_dM2t1P86b6ys-o--10" value="&lt;font style=&quot;font-size: 26px;&quot;&gt;М6&lt;br&gt;&lt;/font&gt;" style="rounded=0;whiteSpace=wrap;html=1;" vertex="1" parent="1">
          <mxGeometry x="850" y="670" width="90" height="60" as="geometry" />
        </mxCell>
        <mxCell id="yduK_dM2t1P86b6ys-o--11" value="" style="endArrow=classic;html=1;rounded=0;exitX=0.5;exitY=1;exitDx=0;exitDy=0;entryX=0.5;entryY=0;entryDx=0;entryDy=0;" edge="1" parent="1" source="yduK_dM2t1P86b6ys-o--1" target="yduK_dM2t1P86b6ys-o--3">
          <mxGeometry width="50" height="50" relative="1" as="geometry">
            <mxPoint x="990" y="730" as="sourcePoint" />
            <mxPoint x="1040" y="680" as="targetPoint" />
            <Array as="points">
              <mxPoint x="914" y="450" />
              <mxPoint x="805" y="450" />
            </Array>
          </mxGeometry>
        </mxCell>
        <mxCell id="yduK_dM2t1P86b6ys-o--12" value="" style="endArrow=classic;html=1;rounded=0;entryX=0.5;entryY=0;entryDx=0;entryDy=0;" edge="1" parent="1" target="yduK_dM2t1P86b6ys-o--2">
          <mxGeometry width="50" height="50" relative="1" as="geometry">
            <mxPoint x="810" y="450" as="sourcePoint" />
            <mxPoint x="780" y="410" as="targetPoint" />
            <Array as="points">
              <mxPoint x="675" y="450" />
            </Array>
          </mxGeometry>
        </mxCell>
        <mxCell id="yduK_dM2t1P86b6ys-o--13" value="" style="endArrow=classic;html=1;rounded=0;exitX=0.5;exitY=1;exitDx=0;exitDy=0;" edge="1" parent="1" source="yduK_dM2t1P86b6ys-o--3" target="yduK_dM2t1P86b6ys-o--6">
          <mxGeometry width="50" height="50" relative="1" as="geometry">
            <mxPoint x="790" y="560" as="sourcePoint" />
            <mxPoint x="840" y="510" as="targetPoint" />
          </mxGeometry>
        </mxCell>
        <mxCell id="yduK_dM2t1P86b6ys-o--14" value="" style="endArrow=classic;html=1;rounded=0;exitX=0.5;exitY=1;exitDx=0;exitDy=0;entryX=0;entryY=0.5;entryDx=0;entryDy=0;" edge="1" parent="1" source="yduK_dM2t1P86b6ys-o--3" target="yduK_dM2t1P86b6ys-o--8">
          <mxGeometry width="50" height="50" relative="1" as="geometry">
            <mxPoint x="800" y="570" as="sourcePoint" />
            <mxPoint x="850" y="520" as="targetPoint" />
            <Array as="points">
              <mxPoint x="805" y="560" />
              <mxPoint x="805" y="600" />
            </Array>
          </mxGeometry>
        </mxCell>
        <mxCell id="yduK_dM2t1P86b6ys-o--15" value="" style="endArrow=classic;html=1;rounded=0;entryX=1;entryY=0.5;entryDx=0;entryDy=0;exitX=0.5;exitY=1;exitDx=0;exitDy=0;" edge="1" parent="1" target="yduK_dM2t1P86b6ys-o--7" source="yduK_dM2t1P86b6ys-o--3">
          <mxGeometry width="50" height="50" relative="1" as="geometry">
            <mxPoint x="810" y="560" as="sourcePoint" />
            <mxPoint x="720" y="520" as="targetPoint" />
            <Array as="points">
              <mxPoint x="805" y="600" />
            </Array>
          </mxGeometry>
        </mxCell>
        <mxCell id="yduK_dM2t1P86b6ys-o--16" value="" style="endArrow=classic;html=1;rounded=0;entryX=1;entryY=0.5;entryDx=0;entryDy=0;exitX=0.5;exitY=1;exitDx=0;exitDy=0;" edge="1" parent="1" target="yduK_dM2t1P86b6ys-o--9" source="yduK_dM2t1P86b6ys-o--3">
          <mxGeometry width="50" height="50" relative="1" as="geometry">
            <mxPoint x="735" y="560" as="sourcePoint" />
            <mxPoint x="850" y="580" as="targetPoint" />
            <Array as="points">
              <mxPoint x="805" y="700" />
            </Array>
          </mxGeometry>
        </mxCell>
        <mxCell id="yduK_dM2t1P86b6ys-o--17" value="" style="endArrow=classic;html=1;rounded=0;entryX=0;entryY=0.5;entryDx=0;entryDy=0;exitX=0.5;exitY=1;exitDx=0;exitDy=0;" edge="1" parent="1" target="yduK_dM2t1P86b6ys-o--10" source="yduK_dM2t1P86b6ys-o--3">
          <mxGeometry width="50" height="50" relative="1" as="geometry">
            <mxPoint x="885" y="560" as="sourcePoint" />
            <mxPoint x="850" y="580" as="targetPoint" />
            <Array as="points">
              <mxPoint x="805" y="700" />
            </Array>
          </mxGeometry>
        </mxCell>
        <mxCell id="yduK_dM2t1P86b6ys-o--18" value="&lt;font style=&quot;font-size: 26px;&quot;&gt;М8&lt;/font&gt;" style="rounded=0;whiteSpace=wrap;html=1;" vertex="1" parent="1">
          <mxGeometry x="1010" y="570" width="90" height="60" as="geometry" />
        </mxCell>
        <mxCell id="yduK_dM2t1P86b6ys-o--19" value="&lt;font style=&quot;font-size: 26px;&quot;&gt;М10&lt;/font&gt;" style="rounded=0;whiteSpace=wrap;html=1;" vertex="1" parent="1">
          <mxGeometry x="1010" y="770" width="90" height="60" as="geometry" />
        </mxCell>
        <mxCell id="yduK_dM2t1P86b6ys-o--20" value="&lt;font style=&quot;font-size: 26px;&quot;&gt;М9&lt;/font&gt;" style="rounded=0;whiteSpace=wrap;html=1;" vertex="1" parent="1">
          <mxGeometry x="1010" y="670" width="90" height="60" as="geometry" />
        </mxCell>
        <mxCell id="yduK_dM2t1P86b6ys-o--21" value="" style="endArrow=classic;html=1;rounded=0;exitX=0.5;exitY=1;exitDx=0;exitDy=0;entryX=1;entryY=0.5;entryDx=0;entryDy=0;" edge="1" parent="1" source="yduK_dM2t1P86b6ys-o--4" target="yduK_dM2t1P86b6ys-o--20">
          <mxGeometry width="50" height="50" relative="1" as="geometry">
            <mxPoint x="1030" y="630" as="sourcePoint" />
            <mxPoint x="1080" y="580" as="targetPoint" />
            <Array as="points">
              <mxPoint x="1175" y="700" />
            </Array>
          </mxGeometry>
        </mxCell>
        <mxCell id="yduK_dM2t1P86b6ys-o--22" value="" style="endArrow=classic;html=1;rounded=0;entryX=1;entryY=0.5;entryDx=0;entryDy=0;exitX=0.5;exitY=1;exitDx=0;exitDy=0;" edge="1" parent="1" source="yduK_dM2t1P86b6ys-o--4" target="yduK_dM2t1P86b6ys-o--18">
          <mxGeometry width="50" height="50" relative="1" as="geometry">
            <mxPoint x="1170" y="530" as="sourcePoint" />
            <mxPoint x="1080" y="580" as="targetPoint" />
            <Array as="points">
              <mxPoint x="1175" y="560" />
              <mxPoint x="1175" y="600" />
            </Array>
          </mxGeometry>
        </mxCell>
        <mxCell id="yduK_dM2t1P86b6ys-o--23" value="" style="endArrow=classic;html=1;rounded=0;entryX=1;entryY=0.5;entryDx=0;entryDy=0;exitX=0.5;exitY=1;exitDx=0;exitDy=0;" edge="1" parent="1" source="yduK_dM2t1P86b6ys-o--4" target="yduK_dM2t1P86b6ys-o--19">
          <mxGeometry width="50" height="50" relative="1" as="geometry">
            <mxPoint x="1180" y="560" as="sourcePoint" />
            <mxPoint x="1360" y="580" as="targetPoint" />
            <Array as="points">
              <mxPoint x="1175" y="560" />
              <mxPoint x="1175" y="800" />
            </Array>
          </mxGeometry>
        </mxCell>
        <mxCell id="yduK_dM2t1P86b6ys-o--24" value="" style="endArrow=classic;html=1;rounded=0;entryX=0.5;entryY=0;entryDx=0;entryDy=0;" edge="1" parent="1" target="yduK_dM2t1P86b6ys-o--4">
          <mxGeometry width="50" height="50" relative="1" as="geometry">
            <mxPoint x="910" y="450" as="sourcePoint" />
            <mxPoint x="1110" y="370" as="targetPoint" />
            <Array as="points">
              <mxPoint x="1175" y="450" />
            </Array>
          </mxGeometry>
        </mxCell>
        <mxCell id="yduK_dM2t1P86b6ys-o--25" value="" style="endArrow=classic;html=1;rounded=0;entryX=0.5;entryY=0;entryDx=0;entryDy=0;" edge="1" parent="1" target="yduK_dM2t1P86b6ys-o--5">
          <mxGeometry width="50" height="50" relative="1" as="geometry">
            <mxPoint x="1170" y="450" as="sourcePoint" />
            <mxPoint x="1120" y="390" as="targetPoint" />
            <Array as="points">
              <mxPoint x="545" y="450" />
            </Array>
          </mxGeometry>
        </mxCell>
        <mxCell id="yduK_dM2t1P86b6ys-o--29" value="&lt;font style=&quot;font-size: 26px;&quot;&gt;М11&lt;/font&gt;" style="rounded=0;whiteSpace=wrap;html=1;" vertex="1" parent="1">
          <mxGeometry x="1400" y="470" width="90" height="60" as="geometry" />
        </mxCell>
        <mxCell id="yduK_dM2t1P86b6ys-o--30" value="&lt;font style=&quot;font-size: 26px;&quot;&gt;М12&lt;/font&gt;" style="rounded=0;whiteSpace=wrap;html=1;" vertex="1" parent="1">
          <mxGeometry x="1280" y="570" width="90" height="60" as="geometry" />
        </mxCell>
        <mxCell id="yduK_dM2t1P86b6ys-o--31" value="&lt;font style=&quot;font-size: 26px;&quot;&gt;М14&lt;/font&gt;" style="rounded=0;whiteSpace=wrap;html=1;" vertex="1" parent="1">
          <mxGeometry x="1280" y="770" width="90" height="60" as="geometry" />
        </mxCell>
        <mxCell id="yduK_dM2t1P86b6ys-o--32" value="&lt;font style=&quot;font-size: 26px;&quot;&gt;М13&lt;/font&gt;" style="rounded=0;whiteSpace=wrap;html=1;" vertex="1" parent="1">
          <mxGeometry x="1280" y="670" width="90" height="60" as="geometry" />
        </mxCell>
        <mxCell id="yduK_dM2t1P86b6ys-o--33" value="" style="endArrow=classic;html=1;rounded=0;exitX=0.5;exitY=1;exitDx=0;exitDy=0;entryX=1;entryY=0.5;entryDx=0;entryDy=0;" edge="1" parent="1" source="yduK_dM2t1P86b6ys-o--29" target="yduK_dM2t1P86b6ys-o--32">
          <mxGeometry width="50" height="50" relative="1" as="geometry">
            <mxPoint x="1300" y="630" as="sourcePoint" />
            <mxPoint x="1350" y="580" as="targetPoint" />
            <Array as="points">
              <mxPoint x="1445" y="700" />
            </Array>
          </mxGeometry>
        </mxCell>
        <mxCell id="yduK_dM2t1P86b6ys-o--34" value="" style="endArrow=classic;html=1;rounded=0;entryX=1;entryY=0.5;entryDx=0;entryDy=0;exitX=0.5;exitY=1;exitDx=0;exitDy=0;" edge="1" parent="1" source="yduK_dM2t1P86b6ys-o--29" target="yduK_dM2t1P86b6ys-o--30">
          <mxGeometry width="50" height="50" relative="1" as="geometry">
            <mxPoint x="1440" y="530" as="sourcePoint" />
            <mxPoint x="1350" y="580" as="targetPoint" />
            <Array as="points">
              <mxPoint x="1445" y="560" />
              <mxPoint x="1445" y="600" />
            </Array>
          </mxGeometry>
        </mxCell>
        <mxCell id="yduK_dM2t1P86b6ys-o--35" value="" style="endArrow=classic;html=1;rounded=0;entryX=1;entryY=0.5;entryDx=0;entryDy=0;exitX=0.5;exitY=1;exitDx=0;exitDy=0;" edge="1" parent="1" source="yduK_dM2t1P86b6ys-o--29" target="yduK_dM2t1P86b6ys-o--31">
          <mxGeometry width="50" height="50" relative="1" as="geometry">
            <mxPoint x="1450" y="560" as="sourcePoint" />
            <mxPoint x="1630" y="580" as="targetPoint" />
            <Array as="points">
              <mxPoint x="1445" y="560" />
              <mxPoint x="1445" y="800" />
            </Array>
          </mxGeometry>
        </mxCell>
        <mxCell id="yduK_dM2t1P86b6ys-o--36" value="" style="endArrow=classic;html=1;rounded=0;exitX=0.5;exitY=1;exitDx=0;exitDy=0;entryX=0.5;entryY=0;entryDx=0;entryDy=0;" edge="1" parent="1" source="yduK_dM2t1P86b6ys-o--1" target="yduK_dM2t1P86b6ys-o--29">
          <mxGeometry width="50" height="50" relative="1" as="geometry">
            <mxPoint x="950" y="560" as="sourcePoint" />
            <mxPoint x="1320" y="440" as="targetPoint" />
            <Array as="points">
              <mxPoint x="914" y="450" />
              <mxPoint x="1445" y="450" />
            </Array>
          </mxGeometry>
        </mxCell>
      </root>
    </mxGraphModel>
  </diagram>
</mxfile>
